<svg version="1" xmlns="http://www.w3.org/2000/svg" width="400" height="400" viewBox="0 0 300.000000 300.000000"><path d="M49.5 4.1c-2.2.5-6.1 2.5-8.7 4.4-9.6 7.1-13.9 18.6-11.3 30.7 2.3 10.3 11.9 19.4 22.9 21.6 4.4.9 3.7-.9 8.7 21.7 1.1 4.9 2.2 9.7 2.4 10.5 1.7 7.1 2.7 11.9 3.1 14 .3 1.4.9 4.1 1.4 6 .5 1.9 1.1 4.6 1.4 6 .3 1.4 1 4.5 1.6 7 .5 2.5 1.2 5.6 1.4 7 .3 1.4 1.1 4.7 1.8 7.5 1.7 6.9 1.7 6.7-2.4 10.4-12.1 10.6-10.6 31.4 2.9 39.4l3.5 2-.7 10.1c-.8 11.4-1.1 16.2-1.9 25.6-.3 3.6-.8 10.5-1.1 15.5-.5 5.9-1.2 9.6-2.2 10.7-.9 1-1.9 1.6-2.2 1.4-.9-.6-6.2 4.2-8.8 7.9-2.8 4.1-4.1 11-3 16.4 2.7 13.3 15.8 20.9 28.9 16.6 6.1-1.9 9-4.3 12.5-10.3 5-8.5 2.5-21.9-5.1-27.7-2-1.5-3.3-3.3-3.1-4.3.1-.9.6-6.5 1-12.5.3-5.9.8-12 1-13.5.2-1.5.6-7.4 1-13.2.4-5.8.9-11.6 1-13 .2-1.4.3-3.9.4-5.7.1-2.6.8-3.5 4.4-5.6 6.9-4.1 11.5-11.2 12.1-18.6.3-3.6 1.6-7.2 1.6-4.3 0 2.3 9.4 10.5 14.9 13.1 4.8 2.2 7 2.6 15.1 2.6 8.6 0 10.1-.3 15.3-3 11.7-6 19.5-17.4 20-29.2.1-3.5.3-6.3.5-6.3s2 1.3 4 2.9c2 1.6 5.7 3.5 8.1 4.2 3.8 1.1 4.6 1.9 6.3 5.8 1.1 2.5 2.6 5.9 3.3 7.6.8 1.6 5.7 13.3 11 25.9l9.5 23-3.3 3.5c-4.9 5.2-6.6 8.3-8 14.8-1.4 6.2-1.4 7.7-.3 13.8 1.7 8.7 8.9 17.7 17.4 21.8 6.6 3.1 19.8 3.1 26.2 0 6-2.9 11.2-7.7 14.5-13.7 3.7-6.4 4.6-17.1 2-24.8-3.8-11.7-15.7-20.9-27.5-21.3-4.3-.1-3 2.2-16.9-30.6-3.8-9-7.4-17.8-8.1-19.4-.7-1.7-2.1-5-3.2-7.4-1.7-3.8-1.7-4.5-.5-6 7.7-8.7 6.9-23-1.7-30.9-2.4-2.2-4.3-4.2-4.1-4.4.2-.2.6-4.6 1-9.8.4-5.2.8-10.9 1-12.5 1.8-21.6 1.8-21.5 2.4-26 0-.6 1.7-1.7 3.8-2.4 5.3-1.9 11.7-8.4 14.3-14.3 2.7-6.2 2.5-16.1-.4-22.1-6.5-13.3-22.6-18.8-35.9-12.3-13.1 6.4-18.7 21.7-12.9 35 2.2 4.8 4.7 7.7 9.9 11.4 3.1 2.2 3.3 2.6 2.8 7.5-.6 6.8-1.3 15.3-2.1 25.2-.4 4.4-.8 9.1-.9 10.5-.2 1.4-.3 3.9-.4 5.5-.1 2.5-.9 3.4-4.6 5.4-5.2 2.8-10.2 9.7-11.2 15.3-.6 3.8-.6 3.9-2.1 1.6-7.3-10.9-22.7-17.1-36.1-14.6-11.1 2-19.5 8.4-25.3 19.3-2.8 5.3-3.2 6.9-3.2 14.2-.1 4.6-.3 8.3-.5 8.3s-1.2-1.1-2.2-2.4c-1.1-1.4-4.4-3.7-7.4-5.2-3-1.4-5.5-3.3-5.5-4.1 0-.8-2-10.3-4.5-21.1s-4.8-21.3-5.1-23.2c-.3-1.9-.8-3.8-1.1-4.2-.2-.5-.6-1.8-.8-3-.3-1.3-2.1-9.6-4.1-18.5l-3.7-16.2 4.6-4.7c6-6 8.6-12.7 8.4-21.4C86.2 12.2 68.8-.4 49.5 4.1z"/></svg>